<svg viewBox="0 0 17 16" xmlns="http://www.w3.org/2000/svg"><g fill="#434343" fill-rule="evenodd" transform="translate(1)"><path d="m8.021.114c-4.394 0-7.969 3.554-7.969 7.922s3.575 7.922 7.969 7.922c4.395 0 7.969-3.554 7.969-7.922s-3.575-7.922-7.969-7.922zm-.008 13.956c-3.329 0-6.04-2.724-6.04-6.071s2.711-6.071 6.04-6.071 6.039 2.725 6.039 6.071c0 3.348-2.71 6.071-6.039 6.071z"/><path d="m7.996 11.969c-.654 0-.959-.437-.959-.731v-2.255h-2.224c-.265 0-.782-.298-.782-.986 0-.654.438-.959.732-.959h2.271v-2.237c0-.264.298-.782.986-.782.654 0 .959.438.959.732v2.285h2.236c.265 0 .783.299.783.987 0 .653-.438.958-.732.958h-2.285v2.206c.001.263-.296.782-.985.782z"/></g></svg>